HIERARCHY
ROOT Hips
{
    OFFSET 0.000000 0.000000 0.000000
    CHANNELS 6 Xposition Yposition Zposition Zrotation Xrotation Yrotation
    JOINT Spine
    {
        OFFSET -0.000000 7.523850 0.000000
        CHANNELS 3 Zrotation Xrotation Yrotation
        JOINT Spine1
        {
            OFFSET -0.000000 21.784267 0.000000
            CHANNELS 3 Zrotation Xrotation Yrotation
            JOINT Neck
            {
                OFFSET -0.000000 21.694805 1.972255
                CHANNELS 3 Zrotation Xrotation Yrotation
                JOINT Head
                {
                    OFFSET -0.000000 12.845598 -1.835085
                    CHANNELS 3 Zrotation Xrotation Yrotation
                    End Site
                    {
                        OFFSET -0.000000 22.938568 0.000000
                    }
                }
            }
            JOINT LeftShoulder
            {
                OFFSET 3.657477 19.705200 -0.211895
                CHANNELS 3 Zrotation Xrotation Yrotation
                JOINT LeftArm
                {
                    OFFSET 11.195261 0.000000 0.000000
                    CHANNELS 3 Zrotation Xrotation Yrotation
                    JOINT LeftForeArm
                    {
                        OFFSET 29.660666 0.000000 0.000000
                        CHANNELS 3 Zrotation Xrotation Yrotation
                        JOINT LeftHand
                        {
                            OFFSET 23.347620 0.000000 0.000000
                            CHANNELS 3 Zrotation Xrotation Yrotation
                            End Site
                            {
                                OFFSET 13.763142 0.000000 0.000000
                            }
                        }
                    }
                }
            }
            JOINT RightShoulder
            {
                OFFSET -3.680529 19.705200 -0.211895
                CHANNELS 3 Zrotation Xrotation Yrotation
                JOINT RightArm
                {
                    OFFSET -11.195261 0.000000 0.000000
                    CHANNELS 3 Zrotation Xrotation Yrotation
                    JOINT RightForeArm
                    {
                        OFFSET -29.660666 0.000000 0.000000
                        CHANNELS 3 Zrotation Xrotation Yrotation
                        JOINT RightHand
                        {
                            OFFSET -23.347620 0.000000 0.000000
                            CHANNELS 3 Zrotation Xrotation Yrotation
                            End Site
                            {
                                OFFSET -13.763142 0.000000 0.000000
                            }
                        }
                    }
                }
            }
        }
    }
    JOINT LeftUpLeg
    {
        OFFSET 9.175427 0.000000 0.000000
        CHANNELS 3 Zrotation Xrotation Yrotation
        JOINT LeftLeg
        {
            OFFSET -0.000000 -39.121593 0.000000
            CHANNELS 3 Zrotation Xrotation Yrotation
            JOINT LeftFoot
            {
                OFFSET -0.000000 -35.356884 0.000000
                CHANNELS 3 Zrotation Xrotation Yrotation
                JOINT LeftToeBase
                {
                    OFFSET -0.000000 -5.964027 13.763142
                    CHANNELS 3 Zrotation Xrotation Yrotation
                    End Site
                    {
                        OFFSET -0.000000 0.000000 3.670171
                    }
                }
            }
        }
    }
    JOINT RightUpLeg
    {
        OFFSET -9.175427 0.000000 0.000000
        CHANNELS 3 Zrotation Xrotation Yrotation
        JOINT RightLeg
        {
            OFFSET -0.000000 -39.121593 0.000000
            CHANNELS 3 Zrotation Xrotation Yrotation
            JOINT RightFoot
            {
                OFFSET -0.000000 -35.356884 0.000000
                CHANNELS 3 Zrotation Xrotation Yrotation
                JOINT RightToeBase
                {
                    OFFSET -0.000000 -5.964027 13.763142
                    CHANNELS 3 Zrotation Xrotation Yrotation
                    End Site
                    {
                        OFFSET -0.000000 0.000000 3.670171
                    }
                }
            }
        }
    }
}
MOTION
Frames:    7
Frame Time:    0.004000
-0.244904    76.921761    -156.676270    0.393276    -3.180279    11.759142    1.129795    -5.462531    -2.201257    5.640245    19.272520    -3.213538    0.220903    12.984649    -8.864707    7.740324    25.850191    -9.952208    -4.135591    20.898130    -12.912148    -38.996887    47.550911    -27.907843    9.230061    -16.634085    -22.156347    3.552893    -14.781091    3.677677    5.151275    20.354429    7.237873    26.550741    46.404331    39.540562    -10.271043    -16.496477    17.633354    -0.403964    -14.963201    1.120320    4.924133    -2.777130    -0.917677    -4.751660    41.794777    1.003660    -10.314169    -9.223811    4.931304    0.000000    0.000000    0.000000    1.278060    -5.183731    1.352989    3.739373    16.296446    1.076005    -5.276363    -9.993571    -22.818783    0.000000    0.000000    0.000000    
-0.305085    76.924911    -156.529648    0.416368    -3.235923    11.818093    1.132839    -5.476572    -2.169706    5.659482    19.337452    -3.188846    0.330626    12.912756    -8.894945    7.672484    25.966505    -9.989834    -4.097124    20.881758    -12.909735    -39.021282    47.441074    -27.900242    9.176330    -16.803425    -22.398577    4.291823    -14.908665    3.984149    5.175897    20.336666    7.326767    26.330929    46.472397    39.600956    -10.336007    -16.441612    17.539469    -0.357509    -14.906273    1.186270    5.073241    -3.059757    -0.998656    -5.162486    42.441486    1.108338    -10.408187    -9.407590    5.255541    0.000000    0.000000    0.000000    1.326712    -5.015896    1.280530    3.733069    16.285400    1.108094    -5.337582    -10.068526    -22.834078    0.000000    0.000000    0.000000    
-0.358882    76.933571    -156.362503    0.467062    -3.350430    11.790839    1.104975    -5.502886    -2.082320    5.708683    19.503067    -3.117322    0.364825    12.952551    -8.986827    7.706643    25.913250    -10.085958    -4.030450    20.853956    -12.967413    -38.973217    47.454704    -27.934589    9.346622    -16.965429    -22.570150    4.310916    -15.023332    4.022074    5.157001    20.276937    7.395792    26.281679    46.345108    39.557484    -10.277863    -16.546835    17.512819    -0.346751    -15.023105    1.118830    5.114677    -3.206726    -0.839376    -5.172760    42.969273    1.237442    -11.099298    -9.280236    5.203200    0.000000    0.000000    0.000000    1.392510    -4.763430    1.251870    3.661577    16.239424    1.107251    -5.355883    -10.138318    -22.760838    0.000000    0.000000    0.000000    
-0.419682    76.937218    -156.217072    0.505201    -3.420483    11.838980    1.083276    -5.483808    -2.044131    5.751892    19.542339    -3.087359    0.386993    12.872952    -9.021530    7.739731    26.085464    -10.139190    -4.027269    20.811602    -12.995998    -39.094337    47.262276    -27.815483    9.462087    -17.027401    -22.698862    4.093532    -15.064382    3.900143    5.167366    20.242695    7.493159    26.168892    46.363655    39.544552    -10.327976    -16.497189    17.400774    -0.344567    -14.975528    1.114279    5.157869    -3.433225    -0.735193    -5.179163    43.516876    1.111334    -10.005705    -9.581020    5.287589    0.000000    0.000000    0.000000    1.423471    -4.571245    1.220702    3.676261    16.205214    1.144843    -5.432655    -10.203382    -22.797731    0.000000    0.000000    0.000000    
-0.478069    76.937500    -156.072266    0.551193    -3.495240    11.888494    1.044968    -5.466856    -2.015033    5.815217    19.602007    -3.070314    0.360138    12.931108    -9.080923    7.819608    26.017466    -10.202553    -4.045010    20.813665    -12.978787    -39.089237    47.124905    -27.807665    9.604961    -17.096899    -22.865499    4.023928    -15.096189    3.862027    5.146919    20.228001    7.566919    26.092396    46.226624    39.569172    -10.278082    -16.289783    17.258982    -0.316677    -14.786564    1.183433    5.225616    -3.675395    -0.682167    -5.322290    44.061409    1.194281    -9.715457    -9.680501    5.345819    0.000000    0.000000    0.000000    1.439037    -4.362332    1.302904    3.743745    16.142378    1.080756    -5.511945    -10.281216    -22.853670    0.000000    0.000000    0.000000    
-0.539649    76.945419    -155.926590    0.591675    -3.575595    11.926038    1.021637    -5.431981    -1.970422    5.853787    19.636076    -3.032771    0.344923    12.974491    -9.134063    7.930394    25.989788    -10.265683    -4.042048    20.823544    -12.980709    -39.120464    46.924095    -27.774773    9.712593    -17.140890    -23.031713    3.756693    -15.119514    3.686628    5.155247    20.201738    7.625470    25.985458    46.149986    39.595528    -10.279048    -16.248016    17.124136    -0.114161    -14.754355    1.217367    5.337431    -3.921864    -0.703398    -5.640065    44.612137    1.309427    -10.056176    -9.844364    5.613664    0.000000    0.000000    0.000000    1.466998    -4.171290    1.173202    3.742218    16.131319    1.208292    -5.559625    -10.331100    -22.870716    0.000000    0.000000    0.000000    
-0.580928    76.952675    -155.770859    0.637219    -3.652858    11.971697    1.043453    -5.457139    -1.942919    5.821463    19.746878    -3.006741    0.339842    12.865667    -9.152242    8.013631    26.186661    -10.307955    -4.030099    20.799318    -12.944572    -39.130226    46.791336    -27.762339    9.799029    -17.219742    -23.175619    3.884199    -15.173875    3.436066    5.159430    20.200514    7.726391    25.898970    45.991161    39.616917    -10.215870    -16.193945    17.000235    -0.134525    -14.720395    1.277333    5.337134    -4.106341    -0.647441    -5.628453    45.011990    1.602581    -10.028538    -9.966056    5.310638    0.000000    0.000000    0.000000    1.471228    -3.974972    1.128670    3.768893    16.119717    1.212396    -5.614905    -10.401216    -22.861584    0.000000    0.000000    0.000000    
